# xmcd CD database file
#
# Track frame offsets:
#	150
#	17780
#	33837
#	51147
#	64952
#	76985
#	101845
#	114697
#	137645
#	150070
#	177930
#	184615
#
# Disc length: 2687 seconds
#
# Revision: 0
# Processed by: cddbd v1.5.2PL0 Copyright (c) Steve Scherf et al.
# Submitted via: CDex 1.51
#
DISCID=930a7d0c
DTITLE=Tabor and garibay - Andromeda
DYEAR=1996
DGENRE=New Age
TTITLE0=Fisherman's Daughter
TTITLE1=Rum To-Go
TTITLE2=Long Time Fifths
TTITLE3=Sutherland
TTITLE4=The Living Lights of Day
TTITLE5=Andromeda Skies
TTITLE6=Baksheesh
TTITLE7=Dusty dawn
TTITLE8=Dreams
TTITLE9=Spanish Inspiration
TTITLE10=Catarina
TTITLE11=Universal Sleep
EXTD=YEAR: 1996
EXTT0=
EXTT1=
EXTT2=
EXTT3=
EXTT4=
EXTT5=
EXTT6=
EXTT7=
EXTT8=
EXTT9=
EXTT10=
EXTT11=
PLAYORDER=
